# xmcd CD database file
#
# Track frame offsets:
#	150
#	14460
#	26962
#	45371
#	61610
#	75761
#	88598
#	99493
#	109745
#	127317
#	140837
#	150835
#	170424
#	182550
#
# Disc length: 2659 seconds
#
# Revision: 0
# Processed by: cddbd v1.4PL0 Copyright (c) Steve Scherf et al.
# Submitted via: CDex 1.50beta10
#
DISCID=a70a610e
DTITLE=Sarah Vaughan - The Jazz Singer
DYEAR=2001
DGENRE=Jazz
TTITLE0=Summertime
TTITLE1=My favourite things
TTITLE2=In a sentimental mood
TTITLE3=Round midnight
TTITLE4=The more I see you
TTITLE5=Hands across the table
TTITLE6=I cried for you
TTITLE7=You stepped out of a dream
TTITLE8=When sunny gets blue
TTITLE9=It might as well be spring
TTITLE10=When your lover has gone
TTITLE11=Star eyes
TTITLE12=Mean to me
TTITLE13=Sophisticated lady
EXTD=YEAR: 2001
EXTT0=
EXTT1=
EXTT2=
EXTT3=
EXTT4=
EXTT5=
EXTT6=
EXTT7=
EXTT8=
EXTT9=
EXTT10=
EXTT11=
EXTT12=
EXTT13=
PLAYORDER=
